# Blender 5.0.1
# www.blender.org
mtllib Akbar_Toys.mtl
o Cube
v 0.281250 -0.500000 -0.125000
v 0.281250 -0.500000 0.500000
v -0.281250 -0.500000 -0.125000
v -0.281250 -0.500000 0.500000
v -0.281250 -0.031250 0.500000
v -0.500000 -0.500000 0.500000
v -0.500000 -0.031250 0.500000
v 0.500000 -0.500000 0.500000
v 0.281250 -0.031250 0.500000
v 0.500000 -0.031250 0.500000
v -0.500000 0.500000 0.500000
v 0.500000 0.500000 0.500000
v -0.281250 -0.031250 -0.125000
v 0.281250 -0.031250 -0.125000
v -0.093750 -0.500000 -0.125000
v 0.093750 -0.500000 -0.125000
v -0.093750 -0.500000 0.250000
v 0.093750 -0.500000 0.250000
v -0.093750 -0.281250 -0.125000
v 0.093750 -0.281250 -0.125000
v -0.093750 -0.281250 0.250000
v 0.093750 -0.281250 0.250000
vn -0.0000 1.0000 -0.0000
vn -0.0000 -0.0000 1.0000
vn 1.0000 -0.0000 -0.0000
vn -1.0000 -0.0000 -0.0000
vn -0.0000 -1.0000 -0.0000
vn -0.0000 -0.0000 -1.0000
vt 0.125000 0.500000
vt 0.125000 0.750000
vt 0.375000 0.750000
vt 0.375000 0.500000
vt 0.000000 0.000000
s 0
usemtl Material
f 3/1/1 4/2/1 2/3/1 1/4/1
f 4/5/2 5/5/2 7/5/2 6/5/2
f 8/5/2 10/5/2 9/5/2 2/5/2
f 7/5/2 10/5/2 12/5/2 11/5/2
f 13/5/3 5/5/3 4/5/3 3/1/3
f 1/4/4 2/3/4 9/5/4 14/5/4
f 1/4/2 14/5/2 13/5/2 3/1/2
f 13/5/5 14/5/5 9/5/5 5/5/5
f 17/5/5 15/5/5 16/5/5 18/5/5
f 21/5/1 22/5/1 20/5/1 19/5/1
f 17/5/2 18/5/2 22/5/2 21/5/2
f 15/5/4 17/5/4 21/5/4 19/5/4
f 16/5/6 15/5/6 19/5/6 20/5/6
f 18/5/3 16/5/3 20/5/3 22/5/3
l 3 15
l 1 16
