# Blender 5.0.1
# www.blender.org
mtllib book_store.mtl
o Cube.001
v 0.312500 -0.500000 -0.375000
v 0.312500 -0.500000 0.500000
v -1.000000 -0.500000 -0.375000
v -1.000000 -0.500000 0.500000
v -1.000000 0.062500 -0.375000
v -1.000000 0.062500 0.500000
v 0.500000 -0.500000 0.500000
v 0.312500 0.062500 0.500000
v 0.312500 0.062500 -0.375000
v 0.500000 0.062500 0.500000
v -1.500000 -0.500000 0.500000
v -1.500000 0.062500 0.500000
v -1.000000 0.062500 -0.375000
v -1.000000 0.062500 0.500000
v 0.312500 0.062500 0.500000
v 0.312500 0.062500 -0.375000
v 0.500000 0.062500 0.500000
v -1.500000 0.062500 0.500000
v 0.500000 0.500000 0.500000
v -1.500000 0.500000 0.500000
v -1.500000 0.062500 0.500000
v -1.500000 0.500000 0.500000
v 0.500000 0.500000 0.500000
v 0.500000 0.062500 0.500000
v -1.000000 -0.500000 0.500000
v -1.000000 0.062500 0.500000
v -1.500000 0.062500 0.500000
v -1.500000 -0.500000 0.500000
v 0.500000 -0.500000 0.500000
v 0.500000 0.062500 0.500000
v 0.312500 -0.500000 0.500000
v 0.312500 0.062500 0.500000
v -1.000000 -0.500000 -0.375000
v -1.000000 -0.500000 0.500000
v 0.312500 -0.500000 -0.375000
v 0.312500 -0.500000 0.500000
v 0.312500 -0.500000 -0.375000
v -1.000000 -0.500000 -0.375000
v -1.000000 0.062500 -0.375000
v 0.312500 0.062500 -0.375000
v -1.000000 -0.500000 -0.375000
v -1.000000 -0.500000 0.500000
v -1.000000 0.062500 -0.375000
v -1.000000 0.062500 0.500000
v 0.312500 -0.500000 -0.375000
v 0.312500 -0.500000 0.500000
v 0.312500 0.062500 0.500000
v 0.312500 0.062500 -0.375000
v 0.312500 0.062500 0.500000
v 0.312500 0.062500 -0.375000
v -1.000000 0.062500 0.500000
v -1.000000 0.062500 -0.375000
v 0.312500 -0.500000 -0.375000
v -1.000000 -0.500000 -0.375000
v -1.000000 0.062500 -0.375000
v 0.312500 0.062500 -0.375000
v 0.312500 -0.500000 -0.375000
v -1.000000 -0.500000 -0.375000
v -1.000000 0.062500 -0.375000
v 0.312500 0.062500 -0.375000
vn -0.0000 -0.0000 -0.0000
vn -0.0000 -0.0000 1.0000
vn -0.0000 1.0000 -0.0000
vn -0.0000 -0.0000 -1.0000
vn 1.0000 -0.0000 -0.0000
vn -1.0000 -0.0000 -0.0000
vn -0.0000 -1.0000 -0.0000
vt 0.375000 0.500000
vt 0.375000 0.750000
vt 0.125000 0.750000
vt 0.125000 0.500000
vt 0.000000 0.000000
s 1
usemtl Material.001
f 1/1/1 2/2/1 36/2/1 35/1/1
s 0
f 6/3/1 5/4/1 43/4/1 44/3/1
f 7/5/2 2/5/2 31/5/2 29/5/2
s 1
f 2/2/1 1/1/1 45/1/1 46/2/1
s 0
f 11/5/2 12/5/2 27/5/2 28/5/2
f 8/2/1 9/1/1 16/1/1 15/2/1
f 5/4/3 9/1/4 40/1/2 39/4/2
f 13/4/1 14/3/1 51/3/1 52/4/1
f 6/5/3 8/5/4 15/5/3 14/5/4
f 5/4/1 6/3/1 14/3/1 13/4/1
f 9/1/3 5/4/4 13/4/3 16/1/4
f 10/5/3 8/5/4 15/5/3 17/5/4
f 6/3/3 12/3/4 18/3/3 14/3/4
s 1
f 20/5/2 18/5/2 17/5/2 19/5/2
f 22/5/2 21/5/2 24/5/2 23/5/2
f 18/5/2 20/5/2 22/5/5 21/5/3
f 17/5/2 18/5/2 21/5/3 24/5/6
f 20/5/2 19/5/2 23/5/7 22/5/5
f 19/5/2 17/5/2 24/5/6 23/5/7
f 26/3/2 27/3/2 28/3/2 25/3/2
s 0
f 12/3/3 6/3/4 26/3/2 27/3/2
s 1
f 6/3/2 4/3/2 25/3/2 26/3/2
s 0
f 4/5/2 11/5/2 28/5/2 25/5/2
s 1
f 29/5/2 30/5/2 32/5/2 31/5/2
f 2/2/2 8/2/2 32/2/2 31/2/2
s 0
f 10/5/2 7/5/2 29/5/2 30/5/2
f 8/5/3 10/5/4 30/5/2 32/5/2
s 1
f 33/4/3 34/3/3 36/2/3 35/1/3
f 4/3/1 3/4/1 33/4/1 34/3/1
s 0
f 2/5/2 4/5/2 34/5/2 36/5/2
s 1
f 3/4/1 1/1/1 35/1/1 33/4/1
f 37/1/2 40/1/2 56/1/2 53/1/2
f 3/4/2 5/4/2 39/4/2 38/4/2
f 9/1/2 1/1/2 37/1/2 40/1/2
f 1/1/2 3/4/2 38/4/2 37/1/2
f 41/4/5 43/4/5 44/3/5 42/3/5
f 5/4/2 3/4/1 41/4/1 43/4/2
f 3/4/1 4/3/1 42/3/1 41/4/1
f 4/3/1 6/3/2 44/3/2 42/3/1
f 46/2/6 47/2/6 48/1/6 45/1/6
f 1/1/1 9/1/2 48/1/2 45/1/1
f 8/2/2 2/2/1 46/2/1 47/2/2
s 0
f 9/1/1 8/2/1 47/2/1 48/1/1
s 1
f 49/2/7 51/3/7 52/4/7 50/1/7
s 0
f 14/5/3 15/5/4 49/5/2 51/5/2
f 15/2/1 16/1/1 50/1/1 49/2/1
f 16/1/7 13/4/4 52/4/2 50/1/2
f 56/1/2 55/4/2 59/4/2 60/1/2
s 1
f 38/4/2 37/1/2 53/1/2 54/4/2
s 0
f 40/1/2 39/4/2 55/4/2 56/1/2
s 1
f 39/4/2 38/4/2 54/4/2 55/4/2
f 58/4/2 57/1/2 60/1/2 59/4/2
f 55/4/2 54/4/2 58/4/2 59/4/2
f 53/1/2 56/1/2 60/1/2 57/1/2
f 54/4/2 53/1/2 57/1/2 58/4/2
