# Blender 5.0.1
# www.blender.org
mtllib Jetlag_Bakery.mtl
o Cube
v 0.250000 0.000000 0.625000
v 0.500000 -0.500000 0.500000
v -1.250000 0.000000 0.625000
v -1.500000 -0.500000 0.500000
v -1.250000 -0.500000 0.500000
v 0.250000 -0.500000 0.500000
v 0.250000 0.000000 -0.187500
v 0.250000 -0.500000 -0.187500
v -1.500000 0.000000 0.500000
v -1.250000 0.000000 0.500000
v -1.250000 0.000000 -0.187500
v -1.250000 -0.500000 -0.187500
v 0.500000 0.000000 0.500000
v 0.250000 0.000000 0.500000
v -1.500000 0.500000 0.500000
v 0.500000 0.500000 0.500000
v 0.250000 0.187500 0.625000
v -1.250000 0.187500 0.625000
v 0.250000 0.187500 0.500000
v -1.250000 0.187500 0.500000
v -0.500000 -0.500000 -0.187500
v -1.250000 -0.500000 0.250000
v -1.250000 -0.500000 0.062500
v -1.062500 -0.500000 0.250000
v -1.250000 -0.187500 0.250000
v -1.250000 -0.187500 0.062500
v -1.062500 -0.500000 0.062500
v -1.062500 -0.187500 0.250000
v -1.062500 -0.187500 0.062500
v -1.062500 -0.250000 0.250000
v -1.062500 -0.250000 0.062500
v -1.062500 -0.500000 0.250000
v -1.062500 -0.500000 0.062500
v -1.062500 -0.250000 0.250000
v -1.062500 -0.250000 0.062500
v 0.250000 -0.500000 0.250000
v 0.250000 -0.500000 0.062500
v 0.250000 -0.250000 0.250000
v 0.250000 -0.250000 0.062500
v -1.062500 -0.375000 0.250000
v 0.250000 -0.375000 0.250000
v 0.250000 -0.312500 0.062500
v -1.062500 -0.312500 0.062500
vn -0.0000 -0.0000 1.0000
vn 0.7344 0.4141 0.5377
vn -0.0000 -0.8944 0.4472
vn -0.2674 -0.0396 0.9628
vn 0.5074 -0.3510 -0.7870
vn -0.5684 -0.5948 0.5685
vn 0.5774 -0.5774 0.5774
vn 0.6332 0.5473 0.5473
vn -0.0000 -0.7074 0.7068
vn -0.7891 0.4344 0.4344
vn -0.5774 -0.5774 0.5774
vn 0.5774 0.5774 0.5774
vn -0.5774 0.5774 0.5774
vn 0.7071 0.7071 -0.0000
vn -0.7071 0.7071 -0.0000
vn 0.5774 0.5774 -0.5774
vn -0.0000 -0.0000 -1.0000
vn 0.7071 -0.0000 0.7071
vn -0.0000 0.7071 0.7071
vn 0.0001 1.0000 -0.0001
vn 0.0001 1.0000 0.0002
vn -0.5774 0.5774 -0.5774
vn -0.8944 -0.0000 -0.4472
vn -0.7741 -0.5010 0.3870
vn -0.7541 0.4644 0.4644
vn 0.8944 0.4243 0.1414
vn -0.0000 0.9487 0.3162
vt 0.000000 0.000000
s 1
usemtl Material.001
f 4/1/1 5/1/2 10/1/3 9/1/1
f 2/1/1 13/1/1 14/1/4 6/1/5
f 15/1/1 9/1/1 13/1/1 16/1/1
f 7/1/6 11/1/7 12/1/8 21/1/9 8/1/10
f 14/1/4 10/1/3 11/1/7 7/1/6
f 10/1/3 14/1/4 1/1/7 3/1/11
f 3/1/11 1/1/7 17/1/12 18/1/13
f 18/1/13 17/1/12 19/1/14 20/1/15
f 3/1/11 18/1/13 20/1/15 10/1/3
f 14/1/4 19/1/14 17/1/12 1/1/7
f 23/1/16 26/1/16 29/1/16 27/1/17
f 10/1/3 5/1/2 22/1/12 25/1/12 26/1/16 23/1/16 12/1/8 11/1/7
f 26/1/16 25/1/12 28/1/12 29/1/16
f 25/1/12 22/1/12 24/1/1 28/1/12
f 29/1/16 28/1/12 30/1/18 31/1/18
f 31/1/18 30/1/18 34/1/19 35/1/19
f 35/1/19 34/1/19 38/1/20 39/1/21
f 7/1/6 8/1/10 37/1/22 42/1/23 39/1/21 38/1/20 41/1/24 36/1/25 6/1/5 14/1/4
f 36/1/25 41/1/24 40/1/1 32/1/1
f 37/1/22 33/1/17 43/1/17 42/1/23
f 41/1/26 42/1/27 43/1/27 40/1/27
s 0
f 39/1/17 42/1/17 43/1/17 35/1/17
f 34/1/1 40/1/1 41/1/1 38/1/1
s 1
f 23/1/16 37/1/22 8/1/10 12/1/8
f 22/1/12 5/1/2 6/1/5 36/1/25
l 27 33
l 24 32
