# Blender 5.0.1
# www.blender.org
mtllib old_veggies.mtl
o Cube
v -1.500000 -0.500000 0.500000
v 0.156250 -0.500000 0.000000
v 0.156250 0.062500 -0.000000
v 0.156250 -0.500000 0.500000
v 0.500000 -0.500000 0.500000
v -1.156250 -0.500000 0.000000
v -1.156250 0.062500 -0.000000
v -1.156250 -0.500000 0.500000
v 0.156250 0.062500 0.500000
v -1.500000 0.062500 0.500000
v -1.156250 0.062500 0.500000
v 0.500000 0.062500 0.500000
v -1.500000 0.500000 0.500000
v 0.500000 0.500000 0.500000
v 0.156250 -0.500000 0.718750
v 0.156250 -0.375000 0.718750
v 0.156250 -0.343750 0.500000
v -0.343750 -0.500000 0.500000
v -0.343750 -0.500000 0.718750
v -0.343750 -0.375000 0.718750
v -0.343750 -0.343750 0.500000
v -1.156250 -0.500000 0.718750
v -1.156250 -0.375000 0.718750
v -1.156250 -0.343750 0.500000
v -0.656250 -0.500000 0.500000
v -0.656250 -0.500000 0.718750
v -0.656250 -0.375000 0.718750
v -0.656250 -0.343750 0.500000
vn -0.0000 -0.0000 1.0000
vn -1.0000 -0.0000 -0.0000
vn 1.0000 -0.0000 -0.0000
vn -0.0000 -1.0000 -0.0000
vn -0.0000 1.0000 -0.0000
vn -0.0000 0.9899 0.1414
vn -0.0000 -0.0000 -1.0000
vt 0.000000 0.000000
s 1
usemtl Material.001
f 13/1/1 10/1/1 12/1/1 14/1/1
f 3/1/2 2/1/2 4/1/2 9/1/2
f 4/1/1 5/1/1 12/1/1 9/1/1
f 11/1/3 8/1/3 6/1/3 7/1/3
f 1/1/1 8/1/1 11/1/1 10/1/1
f 6/1/1 2/1/1 3/1/1 7/1/1
f 9/1/4 11/1/4 7/1/4 3/1/4
f 6/1/5 8/1/5 4/1/5 2/1/5
f 15/1/3 4/1/3 17/1/3 16/1/3
f 19/1/2 20/1/2 21/1/2 18/1/2
f 17/1/6 21/1/6 20/1/6 16/1/6
f 16/1/1 20/1/1 19/1/1 15/1/1
f 4/1/7 18/1/7 21/1/7 17/1/7
f 15/1/4 19/1/4 18/1/4 4/1/4
f 22/1/2 23/1/2 24/1/2 8/1/2
f 26/1/3 25/1/3 28/1/3 27/1/3
f 24/1/7 28/1/7 25/1/7 8/1/7
f 8/1/4 25/1/4 26/1/4 22/1/4
f 23/1/6 27/1/6 28/1/6 24/1/6
f 22/1/1 26/1/1 27/1/1 23/1/1
