# Made in Blockbench 5.0.7
mtllib Produce Stand.mtl

o Body
v 1.25 0 0.625
v 1.25 0 -0.625
v -1.25 0 0.625
v -1.25 0 -0.625
v 1.25 0.9375 -0.625
v -1.25 0.9375 -0.625
v 1.1875 0.75 0.5625
v 1.1875 0.875 -0.5625
v 1.1875 0.9375 -0.5625
v 1.1875 0.8125 0.5625
v 1.25 0.8125 0.625
v -1.1875 0.9375 -0.5625
v -1.1875 0.75 0.5625
v -1.1875 0.875 -0.5625
v -1.25 0.8125 0.625
v -1.1875 0.8125 0.5625
vt 0.4691358024691358 0.14736517820978956
vt 0.48148148148148145 0.1497658635592427
vt 0.48148148148148145 0.5434782608695652
vt 0.4691358024691358 0.541077575520112
vt 0.7359333444589486 0.9565217391304348
vt 0.5123435879617285 0.9565217391304348
vt 0.5109802357879649 0.9347826086956522
vt 0.7345699922851852 0.9347826086956522
vt 0.5061728395061729 1
vt 0.5061728395061729 0.9782608695652174
vt 0.9753086419753086 0.9782608695652174
vt 0.9753086419753086 1
vt 0.5061728395061729 0.9782608695652174
vt 0.5061728395061729 0.9565217391304348
vt 0.9753086419753086 0.9565217391304348
vt 0.9753086419753086 0.9782608695652174
vt 0.017904005896635284 0.5845547826003915
vt 0.01926671415025525 0.9782610780444779
vt 0.006921153533539003 1
vt 0.005707723378169532 0.5630787199048323
vt 0.4870398083657711 0.5845547826003915
vt 0.017904005896635284 0.5845547826003915
vt 0.005558326884289605 0.5628156521656089
vt 0.4993854873781168 0.5628156521656089
vt 0.4870398083657711 0.5845547826003915
vt 0.4993853689824873 0.5628158606448694
vt 0.5006145126218833 0.9997617357585132
vt 0.48839029502070386 0.9782364830260019
vt 0.5006145126218833 0.9997617357585132
vt 0.00678735212805603 0.999761735758514
vt 0.01913303114040171 0.9780226053237313
vt 0.4882688336095375 0.9780226053237306
vt 0.4691358024691358 0.5434782608695652
vt 0 0.5434782608695652
vt 0 0.15217391304347827
vt 0.4691358024691358 0.15217391304347827
vt 0.5061728395061729 0.32608695652173914
vt 1 0.32608695652173914
vt 1 0.6086956521739131
vt 0.5061728395061729 0.6086956521739131
vt 0.7283950617283951 0
vt 0.9753086419753086 0
vt 0.9753086419753086 0.32608695652173914
vt 0.7283950617283951 0.28260869565217395
vt 0.5061728395061729 0.6086956521739131
vt 1 0.6086956521739131
vt 1 0.9347826086956522
vt 0.5061728395061729 0.9347826086956522
vt 0.48148148148148145 0
vt 0.7283950617283951 0
vt 0.7283950617283951 0.28260869565217395
vt 0.48148148148148145 0.32608695652173914
vn -1 0 0
vn 1 0 0
vn 0 0 1
vn 0 0 -1
vn -0.10976425998969035 0.9878783399072131 0.10976425998969035
vn 0 1 0
vn -0.09901475429766744 0.9901475429766744 0.09901475429766744
vn 0 1 0
vn 0 0.9938837346736189 0.11043152607484655
vn 0 0 1
vn 1 0 0
vn 0 0 -1
vn -1 0 0
usemtl m_9ddda7ad-f508-4280-9c08-dc4e88c733e2
f 7/1/1 10/2/1 9/3/1 8/4/1
f 12/5/2 16/6/2 13/7/2 14/8/2
f 12/9/3 14/10/3 8/11/3 9/12/3
f 10/13/4 7/14/4 13/15/4 16/16/4
f 16/17/5 12/18/5 6/19/5 15/20/5
f 10/21/6 16/22/6 15/23/6 11/24/6
f 10/25/7 11/26/7 5/27/7 9/28/7
f 5/29/8 6/30/8 12/31/8 9/32/8
f 8/33/9 14/34/9 13/35/9 7/36/9
f 3/37/10 1/38/10 11/39/10 15/40/10
f 1/41/11 2/42/11 5/43/11 11/44/11
f 2/45/12 4/46/12 6/47/12 5/48/12
f 4/49/13 3/50/13 15/51/13 6/52/13