# Blender 5.0.1
# www.blender.org
mtllib Roof_End.mtl
o Cube
v 1.500000 -0.500000 0.500000
v -0.500000 0.062500 0.250000
v -0.500000 -0.500000 0.250000
v 0.750000 0.250000 0.250000
v 0.250000 0.250000 0.250000
v -0.500000 -0.218750 0.250000
v 1.500000 0.062500 0.250000
v 1.500000 -0.218750 0.250000
v 0.500000 0.718750 0.500000
v -0.500000 0.062500 0.500000
v 0.750000 0.250000 0.500000
v 0.250000 0.250000 0.500000
v -0.500000 -0.218750 0.500000
v 1.500000 0.062500 0.500000
v 1.500000 -0.218750 0.500000
v 1.500000 -0.500000 0.250000
v -0.500000 -0.500000 0.500000
vn -0.0000 -0.0000 1.0000
vn -0.8019 -0.5669 0.1884
vn -0.3796 -0.9058 0.1884
vn 0.8221 0.0188 0.5690
vn -0.8019 -0.5670 0.1884
vn 0.0207 -0.0713 0.9972
vn -1.0000 -0.0000 -0.0000
vn -0.5300 -0.8480 -0.0000
vn -0.2846 -0.8788 0.3830
vn 1.0000 -0.0000 -0.0000
vt 0.000000 0.000000
s 1
usemtl Material.001
f 3/1/1 16/1/1 8/1/1 4/1/2 5/1/3 6/1/4
f 4/1/2 11/1/5 12/1/6 5/1/3
f 2/1/7 6/1/7 13/1/7 10/1/7
f 4/1/2 8/1/8 15/1/8 11/1/5
f 7/1/7 8/1/7 15/1/7 14/1/7
f 5/1/3 12/1/6 13/1/9 6/1/4
f 9/1/1 10/1/1 13/1/9 12/1/6 11/1/5 15/1/1 14/1/1
f 16/1/7 1/1/7 15/1/7 8/1/7
f 3/1/10 6/1/10 13/1/10 17/1/10
