# Blender 5.0.1
# www.blender.org
mtllib Roof.mtl
o Cube
v 1.500000 -0.500000 -0.500000
v 0.500000 0.718750 -0.500000
v -0.500000 0.062500 -0.500000
v 1.500000 0.062500 -0.500000
v -0.500000 -0.500000 -0.500000
v 1.500000 -0.500000 0.500000
v 0.500000 0.718750 0.500000
v -0.500000 0.062500 0.500000
v 1.500000 0.062500 0.500000
v -0.500000 -0.500000 0.500000
vn 1.0000 -0.0000 -0.0000
vn -1.0000 -0.0000 -0.0000
vn -0.5487 -0.8360 -0.0000
vn 0.5487 -0.8360 -0.0000
vt 0.000000 0.000000
s 0
usemtl Material
f 3/1/1 8/1/1 10/1/1 5/1/1
f 9/1/2 4/1/2 1/1/2 6/1/2
f 2/1/3 4/1/3 9/1/3 7/1/3
f 3/1/4 2/1/4 7/1/4 8/1/4
