# Blender 5.0.1
# www.blender.org
mtllib Sharkskin_Bakery.mtl
o Cube
v 0.375000 -0.500000 0.500000
v -0.375000 -0.500000 0.500000
v 0.500000 0.500000 0.500000
v 0.375000 -0.500000 -0.062500
v 0.500000 -0.500000 0.500000
v -0.375000 -0.500000 -0.062500
v -0.500000 -0.500000 0.500000
v 0.500000 -0.000000 0.500000
v -0.375000 0.000000 0.500000
v -0.375000 0.000000 -0.062500
v -0.500000 0.000000 0.500000
v -0.500000 0.500000 0.500000
v 0.375000 -0.000000 0.500000
v -0.500000 0.000000 0.500000
v 0.375000 -0.000000 -0.062500
v 0.500000 -0.000000 0.500000
v -0.500000 0.500000 0.500000
v 0.500000 0.500000 0.500000
v -0.375000 -0.500000 0.500000
v -0.500000 -0.500000 0.500000
v -0.375000 0.000000 0.500000
v -0.500000 0.000000 0.500000
v 0.500000 -0.500000 0.500000
v 0.375000 -0.500000 0.500000
v 0.500000 -0.000000 0.500000
v 0.375000 -0.000000 0.500000
v -0.375000 0.000000 0.500000
v -0.500000 0.000000 0.500000
v -0.375000 -0.500000 0.500000
v -0.500000 -0.500000 0.500000
v -0.500000 0.000000 0.500000
v -0.500000 0.500000 0.500000
v 0.500000 -0.000000 0.500000
v 0.500000 0.500000 0.500000
v 0.500000 -0.500000 0.500000
v 0.375000 -0.500000 0.500000
v 0.500000 -0.000000 0.500000
v 0.375000 -0.000000 0.500000
v 0.375000 -0.500000 -0.062500
v -0.375000 -0.500000 -0.062500
v -0.375000 0.000000 -0.062500
v 0.375000 -0.000000 -0.062500
v 0.375000 -0.500000 -0.062500
v -0.375000 -0.500000 -0.062500
v 0.375000 -0.500000 0.500000
v -0.375000 -0.500000 0.500000
v -0.375000 -0.500000 -0.062500
v -0.375000 -0.500000 0.500000
v -0.375000 0.000000 -0.062500
v -0.375000 0.000000 0.500000
v 0.375000 -0.500000 0.500000
v 0.375000 -0.500000 -0.062500
v 0.375000 -0.000000 0.500000
v 0.375000 -0.000000 -0.062500
v -0.375000 0.000000 -0.062500
v -0.375000 0.000000 0.500000
v 0.375000 -0.000000 0.500000
v 0.375000 -0.000000 -0.062500
v -0.375000 0.000000 0.656250
v 0.375000 -0.000000 0.656250
v -0.375000 0.080000 0.656250
v 0.375000 0.080000 0.656250
v 0.375000 -0.000000 0.656250
v 0.375000 -0.000000 0.500000
v 0.375000 0.100000 0.500000
v -0.375000 0.100000 0.500000
v 0.375000 0.080000 0.656250
v 0.375000 0.100000 0.500000
v -0.375000 0.000000 0.500000
v -0.375000 0.100000 0.500000
v -0.375000 0.000000 0.656250
v -0.375000 0.080000 0.656250
v 0.375000 0.080000 0.656250
v 0.375000 0.100000 0.500000
v -0.375000 0.100000 0.500000
v -0.375000 0.080000 0.656250
v -0.375000 0.000000 0.656250
v -0.375000 0.080000 0.656250
v 0.375000 -0.000000 0.656250
v 0.375000 0.080000 0.656250
v -0.375000 0.000000 0.500000
v 0.375000 -0.000000 0.500000
v 0.375000 -0.000000 0.656250
v -0.375000 0.000000 0.656250
v -0.375000 -0.500000 0.312500
v -0.375000 -0.500000 0.187500
v -0.375000 -0.312500 0.312500
v -0.375000 -0.312500 0.187500
v 0.375000 -0.500000 0.312500
v 0.375000 -0.500000 0.187500
v 0.375000 -0.312500 0.312500
v 0.375000 -0.312500 0.187500
v -0.375000 -0.312500 0.312500
v -0.375000 -0.312500 0.187500
v -0.375000 -0.212500 0.312500
v -0.375000 -0.212500 0.212500
v -0.250000 -0.312500 0.312500
v -0.250000 -0.312500 0.187500
v -0.250000 -0.212500 0.312500
v -0.250000 -0.212500 0.212500
v -0.250000 -0.312500 0.312500
v -0.250000 -0.312500 0.187500
v -0.250000 -0.212500 0.312500
v -0.250000 -0.212500 0.212500
v -0.375000 -0.312500 0.312500
v -0.375000 -0.212500 0.312500
v -0.250000 -0.312500 0.312500
v -0.250000 -0.212500 0.312500
v -0.375000 -0.212500 0.312500
v -0.375000 -0.212500 0.212500
v -0.250000 -0.212500 0.312500
v -0.250000 -0.212500 0.212500
v -0.250000 -0.312500 0.312500
v -0.250000 -0.312500 0.187500
v -0.250000 -0.212500 0.312500
v -0.250000 -0.212500 0.212500
v -0.375000 -0.312500 0.312500
v -0.375000 -0.500000 0.312500
v 0.375000 -0.312500 0.312500
v 0.375000 -0.500000 0.312500
v -0.375000 -0.312500 0.312500
v -0.375000 -0.212500 0.312500
v -0.250000 -0.312500 0.312500
v -0.250000 -0.212500 0.312500
v -0.375000 -0.212500 0.312500
v -0.375000 -0.212500 0.212500
v -0.250000 -0.212500 0.312500
v -0.250000 -0.212500 0.212500
v -0.250000 -0.312500 0.312500
v -0.250000 -0.312500 0.187500
v -0.250000 -0.212500 0.312500
v -0.250000 -0.212500 0.212500
v -0.375000 -0.312500 0.187500
v -0.375000 -0.212500 0.212500
v -0.250000 -0.312500 0.187500
v -0.250000 -0.212500 0.212500
vn -0.0000 -0.0000 -0.0000
vn -0.0000 1.0000 -0.0000
vn 1.0000 -0.0000 -0.0000
vn -0.0000 -0.0000 -1.0000
vn -1.0000 -0.0000 -0.0000
vn -0.0000 -0.0000 1.0000
vn -0.0000 -1.0000 -0.0000
vn -0.0000 0.9919 0.1270
vn -0.0000 1.0000 0.0001
vn -0.0000 0.2425 -0.9701
vt 0.000000 0.000000
vt 0.125000 0.500000
vt 0.375000 0.500000
vt 0.375000 0.750000
vt 0.125000 0.750000
s 0
usemtl Material.003
f 17/1/1 18/1/1 3/1/1 12/1/1
f 4/2/2 1/3/3 45/3/2 43/2/3
f 11/1/2 17/1/3 12/1/2 14/1/3
f 22/1/2 20/1/3 30/1/2 28/1/3
f 9/4/2 2/4/3 19/4/2 21/4/3
f 2/4/2 9/4/3 50/4/2 48/4/3
f 16/1/1 11/1/1 14/1/1 8/1/1
f 18/1/2 16/1/3 8/1/2 3/1/3
f 5/1/1 1/1/1 24/1/1 23/1/1
f 15/1/2 13/1/3 53/1/2 54/1/3
s 1
f 12/1/4 3/1/4 8/1/4 14/1/4
s 0
f 15/2/2 4/2/3 39/2/2 42/2/3
f 18/1/2 16/1/3 33/1/2 34/1/5
f 13/1/2 15/1/3 58/1/2 57/1/3
f 11/1/1 9/1/1 21/1/1 22/1/1
f 2/1/1 7/1/1 20/1/1 19/1/1
f 7/1/2 11/1/3 22/1/2 20/1/3
f 24/1/1 23/1/1 35/1/1 36/1/1
f 16/1/2 5/1/3 23/1/2 25/1/3
f 1/3/2 13/3/3 26/3/2 24/3/3
f 13/1/1 16/1/1 25/1/1 26/1/1
s 1
f 29/1/6 27/1/6 28/1/6 30/1/6
f 32/1/6 31/1/6 33/1/6 34/1/6
f 35/1/6 37/1/6 38/1/6 36/1/6
s 0
f 25/1/1 26/1/1 38/1/1 37/1/1
f 20/1/1 19/1/1 29/1/1 30/1/1
f 16/1/1 11/1/1 31/1/1 33/1/1
f 21/1/1 22/1/1 28/1/1 27/1/1
f 19/4/2 21/4/3 27/4/2 29/4/3
f 26/3/2 24/3/3 36/3/2 38/3/3
f 17/1/1 18/1/1 34/1/1 32/1/1
f 11/1/2 17/1/3 32/1/2 31/1/5
f 23/1/2 25/1/3 37/1/2 35/1/3
s 1
f 42/1/6 41/1/6 40/1/6 39/1/6
s 0
f 6/5/2 10/5/3 41/5/2 40/5/3
f 10/1/1 15/1/1 42/1/1 41/1/1
f 4/2/1 6/5/1 40/5/1 39/2/1
s 1
f 43/2/2 44/5/2 46/4/2 45/3/2
s 0
f 1/1/1 2/1/1 46/1/1 45/1/1
f 2/4/2 6/5/3 44/5/2 46/4/3
f 6/5/1 4/2/1 43/2/1 44/5/1
s 1
f 47/5/3 49/5/3 50/4/3 48/4/3
s 0
f 9/1/2 10/1/3 49/1/2 50/1/3
f 10/5/2 6/5/3 47/5/2 49/5/3
f 6/5/2 2/4/3 48/4/2 47/5/3
s 1
f 51/3/5 53/3/5 54/2/5 52/2/5
s 0
f 1/3/2 4/2/3 52/2/2 51/3/3
f 4/2/2 15/2/3 54/2/2 52/2/3
f 13/3/2 1/3/3 51/3/2 53/3/3
s 1
f 58/1/7 57/1/7 56/1/7 55/1/7
s 0
f 10/1/2 9/1/3 56/1/2 55/1/3
f 15/1/1 10/1/1 55/1/1 58/1/1
f 9/1/1 13/1/1 57/1/1 56/1/1
f 57/1/2 60/1/3 83/1/2 82/1/3
f 61/1/1 62/1/1 73/1/1 76/1/1
f 60/1/2 57/1/3 64/1/2 63/1/3
f 61/1/2 66/1/3 70/1/2 72/1/3
f 62/1/1 61/1/1 78/1/1 80/1/1
s 1
f 64/1/3 68/1/3 67/1/3 63/1/3
s 0
f 65/1/2 62/1/3 67/1/2 68/1/3
f 57/1/2 65/1/3 68/1/2 64/1/3
f 62/1/2 60/1/3 63/1/2 67/1/3
s 1
f 70/1/5 69/1/5 71/1/5 72/1/5
s 0
f 59/1/2 61/1/3 72/1/2 71/1/3
f 66/1/2 56/1/3 69/1/2 70/1/3
f 56/1/2 59/1/3 71/1/2 69/1/3
s 1
f 73/1/8 74/1/8 75/1/8 76/1/8
s 0
f 66/1/2 61/1/3 76/1/2 75/1/3
f 62/1/2 65/1/3 74/1/2 73/1/3
f 65/1/1 66/1/1 75/1/1 74/1/1
s 1
f 78/1/6 77/1/6 79/1/6 80/1/6
s 0
f 61/1/2 59/1/3 77/1/2 78/1/3
f 59/1/1 60/1/1 79/1/1 77/1/1
f 60/1/2 62/1/3 80/1/2 79/1/3
s 1
f 84/1/7 81/1/7 82/1/7 83/1/7
s 0
f 56/1/1 57/1/1 82/1/1 81/1/1
f 60/1/1 59/1/1 84/1/1 83/1/1
f 59/1/2 56/1/3 81/1/2 84/1/3
f 91/1/1 87/1/1 117/1/1 119/1/1
s 1
f 88/1/2 87/1/2 91/1/2 92/1/2
f 86/1/4 88/1/4 92/1/4 90/1/4
f 85/1/7 86/1/7 90/1/7 89/1/7
s 0
f 87/1/2 88/1/3 94/1/2 93/1/3
f 94/1/9 96/1/3 134/1/9 133/1/3
f 93/1/2 95/1/3 106/1/2 105/1/3
f 99/1/1 95/1/1 109/1/1 111/1/1
s 1
f 93/1/7 94/1/7 98/1/7 97/1/7
s 0
f 100/1/2 99/1/3 103/1/2 104/1/3
f 104/1/2 103/1/3 115/1/2 116/1/3
f 97/1/2 98/1/3 102/1/2 101/1/3
f 98/1/9 100/1/3 104/1/9 102/1/3
f 99/1/2 97/1/3 101/1/2 103/1/3
f 107/1/1 105/1/1 121/1/1 123/1/1
f 95/1/1 99/1/1 108/1/1 106/1/1
f 97/1/1 93/1/1 105/1/1 107/1/1
f 99/1/2 97/1/3 107/1/2 108/1/3
f 110/1/1 112/1/1 128/1/1 126/1/1
f 96/1/1 100/1/1 112/1/1 110/1/1
f 100/1/2 99/1/3 111/1/2 112/1/3
f 95/1/2 96/1/3 110/1/2 109/1/3
f 113/1/2 114/1/3 130/1/2 129/1/3
f 101/1/2 102/1/3 114/1/2 113/1/3
f 102/1/9 104/1/3 116/1/9 114/1/3
f 103/1/2 101/1/3 113/1/2 115/1/3
s 1
f 117/1/6 118/1/6 120/1/6 119/1/6
s 0
f 89/1/2 91/1/3 119/1/2 120/1/3
f 87/1/2 85/1/3 118/1/2 117/1/3
f 85/1/1 89/1/1 120/1/1 118/1/1
s 1
f 121/1/6 123/1/6 124/1/6 122/1/6
s 0
f 108/1/2 107/1/3 123/1/2 124/1/3
f 106/1/1 108/1/1 124/1/1 122/1/1
f 105/1/2 106/1/3 122/1/2 121/1/3
s 1
f 125/1/2 127/1/2 128/1/2 126/1/2
s 0
f 109/1/2 110/1/3 126/1/2 125/1/3
f 111/1/1 109/1/1 125/1/1 127/1/1
f 112/1/2 111/1/3 127/1/2 128/1/3
s 1
f 130/1/3 132/1/3 131/1/3 129/1/3
s 0
f 114/1/9 116/1/3 132/1/9 130/1/3
f 115/1/2 113/1/3 129/1/2 131/1/3
f 116/1/2 115/1/3 131/1/2 132/1/3
s 1
f 133/1/10 134/1/10 136/1/10 135/1/10
s 0
f 96/1/1 100/1/1 136/1/1 134/1/1
f 98/1/1 94/1/1 133/1/1 135/1/1
f 100/1/9 98/1/3 135/1/9 136/1/3
l 31 37
l 48 85
