# Blender 5.0.1
# www.blender.org
mtllib Gramps_Wall.mtl
o Cube
v 0.500000 0.250000 0.375000
v 0.500000 -0.500000 0.375000
v 0.500000 -0.500000 -0.250000
v 0.500000 -0.500000 0.000000
v 0.500000 -0.062400 -0.000050
v 0.500000 -0.062400 -0.249950
v 0.468750 -0.500000 -0.250000
v 0.468750 -0.500000 0.000000
v 0.468750 -0.062400 -0.000050
v 0.468750 -0.062400 -0.249950
v 0.562500 0.000100 -0.000050
v 0.562500 0.000100 -0.249950
v 0.562500 0.250100 -0.000050
v 0.562500 0.250100 -0.249950
v 0.500000 0.250100 -0.249950
v 0.500000 0.250100 -0.000050
vn 1.0000 -0.0000 -0.0000
vn 0.5774 0.5773 0.5774
vn 0.8428 -0.5368 -0.0391
vn 0.5774 -0.5774 0.5773
vn 0.5773 0.5773 0.5774
vn 0.8427 -0.5369 0.0392
vn 0.5774 -0.5774 -0.5773
vn 0.5774 0.5773 -0.5773
vn 0.5773 0.5773 -0.5774
vn 0.7173 -0.2971 -0.6303
vn 0.7173 -0.2971 0.6303
vn 0.7071 -0.0000 -0.7071
vn 0.7071 -0.0000 0.7071
vn -0.0000 -0.0000 -1.0000
vn -0.0000 -0.0000 1.0000
vt 0.000000 0.000000
vt 0.375000 0.562500
vt 0.375000 0.562512
vt 0.375000 0.624988
vt 0.375000 0.625000
s 0
usemtl Material.003
f 4/1/1 16/1/1 1/1/1 2/1/1
s 1
f 3/2/2 6/3/3 10/3/4 7/2/5
f 6/3/3 5/4/6 9/4/7 10/3/4
f 5/4/6 4/5/8 8/5/9 9/4/7
f 8/5/9 7/2/5 10/3/4 9/4/7
f 7/2/5 8/5/9 4/5/8 3/2/2
f 5/4/6 6/3/3 12/3/10 11/4/11
f 11/4/11 12/3/10 14/3/12 13/4/13
f 15/1/14 14/3/12 12/3/10 6/3/3
f 5/4/6 11/4/11 13/4/13 16/1/15
