# Blender 5.0.1
# www.blender.org
mtllib 3x4_2_floor.mtl
o Cube
v 0.500000 0.375000 0.500000
v 0.500000 -0.375000 0.500000
v -0.500000 0.375000 0.500000
v -0.500000 -0.375000 0.500000
v 0.500000 0.375000 -0.500000
v -0.500000 0.375000 -0.500000
v 0.500000 -0.375000 -0.500000
vn 0.7071 -0.0000 0.7071
vn 0.5774 0.5774 0.5774
vn -0.0000 -0.0000 1.0000
vn -0.0000 1.0000 -0.0000
vn 0.7071 0.7071 -0.0000
vn 1.0000 -0.0000 -0.0000
vt 0.375000 0.750000
vt 0.625000 0.750000
vt 0.625000 1.000000
vt 0.375000 1.000000
vt 0.000000 0.000000
s 1
usemtl Material.001
f 2/1/1 1/2/2 3/3/3 4/4/3
f 3/3/4 1/2/2 5/2/5 6/3/4
f 2/1/1 7/5/6 5/2/5 1/2/2
