# Blender 5.0.1
# www.blender.org
mtllib 3x4_4.mtl
o Cube
v 0.500000 0.375000 0.500000
v 0.500000 -0.375000 0.500000
v -0.500000 0.375000 0.500000
v -0.500000 -0.375000 0.500000
v 0.500000 0.375000 -0.500000
v 0.500000 -0.375000 -0.500000
v -0.500000 0.375000 -0.500000
v -0.500000 -0.375000 -0.500000
vn 0.7071 -0.0000 0.7071
vn -0.7071 -0.0000 0.7071
vn 0.7071 -0.0000 -0.7071
vn -0.7071 -0.0000 -0.7071
vt 0.375000 0.750000
vt 0.625000 0.750000
vt 0.625000 1.000000
vt 0.375000 1.000000
s 1
usemtl Material.001
f 2/1/1 1/2/1 3/3/2 4/4/2
f 1/2/1 2/1/1 6/1/3 5/2/3
f 5/2/3 6/1/3 8/1/4 7/2/4
f 4/4/2 3/3/2 7/2/4 8/1/4
