# Blender 5.0.1
# www.blender.org
mtllib HallEntrance.mtl
o Cube
v -0.500000 0.125000 -0.250000
v 0.500000 -0.375000 0.500000
v 0.500000 -0.375000 -0.500000
v 0.500000 0.375000 0.500000
v 0.500000 0.375000 -0.500000
v 0.000000 -0.375000 0.500000
v 0.000000 -0.375000 -0.500000
v 0.000000 0.375000 0.500000
v 0.000000 0.375000 -0.500000
v 0.000000 -0.375000 0.250000
v 0.000000 -0.375000 -0.250000
v 0.000000 0.125000 0.250000
v 0.000000 0.125000 -0.250000
v -0.500000 -0.375000 0.250000
v -0.500000 -0.375000 -0.250000
v -0.500000 0.125000 0.250000
vn 0.5774 -0.5773 0.5773
vn -0.0000 -0.7071 0.7071
vn -0.0000 -0.7071 -0.7071
vn 0.5774 -0.5773 -0.5773
vn -0.0000 -1.0000 -0.0000
vn 0.5774 0.5774 -0.5774
vn 1.0000 -0.0000 -0.0000
vn -0.0000 0.7071 -0.7071
vn -0.0000 0.7071 0.7071
vn 0.5774 0.5774 0.5774
vn -0.0000 -0.0000 -0.0000
vn -0.0000 -0.0000 -1.0000
vn -0.0000 1.0000 -0.0000
vn -0.0000 -0.0000 1.0000
vt 0.000000 0.000000
vt 0.375000 0.750000
vt 0.375000 0.500000
vt 0.375000 0.875000
vt 0.375000 0.375000
s 1
f 9/1/1 5/1/2 4/1/3 8/1/4
f 12/1/5 16/1/5 1/1/2 13/1/2
f 6/1/6 10/1/7 12/1/7 8/1/4
f 2/2/8 3/3/9 7/3/10 6/2/6
f 9/1/1 8/1/4 12/1/7 13/1/7
f 7/1/10 9/1/1 13/1/7 11/1/7
s 0
f 6/4/11 7/5/11 11/3/11 10/2/11
s 1
f 10/1/12 14/1/12 16/1/12 12/1/12
f 10/2/13 11/3/13 15/3/13 14/2/13
f 8/1/4 4/1/3 2/2/8 6/2/6
f 9/1/1 7/1/10 3/3/9 5/1/2
f 1/1/2 15/3/14 11/1/14 13/1/2
