# Blender 5.0.1
# www.blender.org
mtllib ThinRamp.mtl
o Cube
v -1.500000 0.125000 0.250000
v 1.500000 0.375000 -0.250000
v 1.500000 0.875000 0.250000
v 1.500000 0.375000 0.250000
v -1.500000 0.125000 -0.250000
v -1.500000 -0.375000 -0.250000
v 1.500000 0.875000 -0.250000
v -1.500000 -0.375000 0.250000
vn -0.0000 -0.0000 -1.0000
vn -0.0000 -0.0000 1.0000
vn -0.2425 0.9701 -0.0000
vn 0.2425 -0.9701 -0.0000
vt 0.125000 0.750000
vt 0.375000 0.750000
vt 0.375000 0.500000
vt 0.125000 0.500000
s 1
usemtl Material.001
f 8/1/1 1/1/1 3/2/1 4/2/1
f 2/3/2 7/3/2 5/4/2 6/4/2
f 6/4/3 8/1/3 4/2/3 2/3/3
f 1/1/4 5/4/4 7/3/4 3/2/4
